<?xml version="1.0" encoding="UTF-8"?><svg id="Layer_1" xmlns="http://www.w3.org/2000/svg" viewBox="0 0 601 422"><defs><style>.cls-1,.cls-2,.cls-3{stroke:#fff;stroke-miterlimit:10;}.cls-1,.cls-3{fill:none;}.cls-4{opacity:.9;}.cls-4,.cls-5,.cls-6,.cls-7{stroke-width:0px;}.cls-4,.cls-6,.cls-2,.cls-7{fill:#fff;}.cls-5{opacity:.7;}.cls-7,.cls-8{opacity:.95;}.cls-3{stroke-width:4px;}</style></defs><g class="cls-8"><circle class="cls-2" cx="73.16" cy="101.25" r="8"/><circle class="cls-2" cx="228.8" cy="96.6" r="8"/><circle class="cls-2" cx="291.83" cy="32.99" r="8"/><circle class="cls-2" cx="112.22" cy="216.98" r="8"/><circle class="cls-2" cx="246.87" cy="200.62" r="8"/><circle class="cls-2" cx="357.38" cy="234.76" r="8"/><circle class="cls-2" cx="236.87" cy="330.27" r="8"/><line class="cls-1" x1="246.87" y1="200.62" x2="228.8" y2="96.6"/><line class="cls-1" x1="291.83" y1="32.99" x2="228.8" y2="96.6"/><line class="cls-1" x1="72.2" y1="101.52" x2="246.87" y2="200.62"/><line class="cls-1" x1="112.22" y1="216.98" x2="246.87" y2="200.62"/><line class="cls-1" x1="291.83" y1="32.99" x2="246.87" y2="200.62"/><line class="cls-1" x1="236.87" y1="330.27" x2="112.22" y2="216.98"/><line class="cls-1" x1="357.38" y1="234.76" x2="291.83" y2="32.99"/><line class="cls-1" x1="73.16" y1="101.25" x2="112.22" y2="216.98"/></g><path id="Icon_awesome-code" class="cls-7" d="m344.62,391.48l-7.33-2.13c-.77-.22-1.21-1.02-.99-1.79,0,0,0,0,0,0l16.4-56.48c.22-.77,1.02-1.21,1.79-.99,0,0,0,0,0,0l7.33,2.13c.77.22,1.21,1.02.99,1.79,0,0,0,0,0,0l-16.4,56.49c-.22.76-1.02,1.21-1.78.99,0,0,0,0,0,0h0Zm-13.7-13.48l5.23-5.57c.55-.58.52-1.49-.05-2.04-.01-.01-.02-.02-.04-.03l-10.89-9.57,10.88-9.57c.6-.52.66-1.42.14-2.02-.01-.02-.03-.03-.04-.05l-5.22-5.58c-.54-.58-1.46-.61-2.04-.07,0,0,0,0,0,0l-17.3,16.22c-.58.54-.62,1.44-.08,2.02.03.03.05.05.08.08l17.31,16.23c.57.55,1.47.54,2.02-.03,0,0,.02-.02.03-.03h0Zm39.31.07l17.31-16.23c.58-.54.62-1.44.08-2.02-.03-.03-.05-.05-.08-.08l-17.31-16.24c-.58-.55-1.5-.52-2.05.06l-5.22,5.57c-.54.58-.52,1.49.07,2.04,0,0,.02.02.03.03l10.88,9.59-10.89,9.57c-.6.52-.66,1.42-.14,2.02.01.02.03.03.04.05l5.23,5.57c.54.59,1.45.62,2.04.08,0,0,0,0,.01,0h0Z"/><path class="cls-3" d="m408,2H14C7.37,2,2,7.37,2,14v394c0,6.63,5.37,12,12,12h394c6.63,0,12-5.37,12-12V14c0-6.63-5.37-12-12-12ZM43,417.63c0,.21-.17.37-.37.37H13.93c-5.48,0-9.93-4.45-9.93-9.93V13.93c0-5.48,4.45-9.93,9.93-9.93h28.7c.21,0,.37.17.37.37v413.25Z"/><path class="cls-4" d="m42.63,4H13.93c-5.48,0-9.93,4.45-9.93,9.93v394.14c0,5.48,4.45,9.93,9.93,9.93h28.7c.21,0,.37-.17.37-.37V4.37c0-.21-.17-.37-.37-.37Z"/><path class="cls-7" d="m422,32v129c28.17,0,51,22.83,51,51s-22.83,51-51,51v127c98.86,0,179-80.14,179-179s-80.14-179-179-179Zm128.82,208.77c-6.35,28.38-22.03,54.07-44.22,72.57-.85.71-2.13.58-2.83-.29h0c-.69-.85-.55-2.09.29-2.8,44.49-37.1,58.45-100.94,33.51-153.29-.47-.99-.07-2.17.91-2.66h0c1-.49,2.22-.08,2.7.92,12.65,26.54,16.08,56.83,9.65,85.54Zm-39.33-50.06c-.25-1.06.37-2.14,1.43-2.41h0c1.08-.28,2.19.37,2.45,1.46,3.39,14.26,3.49,29.18.28,43.41-.25,1.09-1.35,1.75-2.44,1.48h0c-1.06-.26-1.7-1.33-1.46-2.39,3.07-13.62,2.98-27.9-.26-41.55Zm54.42,83.99h0c-1-.44-1.46-1.6-1.03-2.61,29.48-69.89,3.22-152.16-61.63-192.08-6.4-3.94-13.13-7.44-20.04-10.42-1.01-.43-1.48-1.59-1.06-2.6.43-1.03,1.61-1.52,2.64-1.08,7.09,3.06,14,6.65,20.56,10.69,32.84,20.22,57.18,51.62,68.54,88.43,11.06,35.81,9.15,74.31-5.33,108.62-.43,1.02-1.63,1.49-2.65,1.05Z"/><path class="cls-5" d="m473,212c0-28.17-22.83-51-51-51v31c11.05,0,20,8.95,20,20s-8.95,20-20,20v31c28.17,0,51-22.83,51-51Z"/><path class="cls-6" d="m442,212c0-11.05-8.95-20-20-20v40c11.05,0,20-8.95,20-20Z"/><path class="cls-5" d="m513.22,234.65h0c1.08.27,2.19-.4,2.44-1.48,3.21-14.23,3.12-29.15-.28-43.41-.26-1.08-1.37-1.74-2.45-1.46h0c-1.06.28-1.68,1.35-1.43,2.41,3.24,13.65,3.33,27.93.26,41.55-.24,1.07.4,2.13,1.46,2.39Z"/><path class="cls-5" d="m538.48,154.31h0c-.98.49-1.38,1.67-.91,2.66,24.94,52.35,10.98,116.19-33.51,153.29-.84.7-.98,1.94-.29,2.79h0c.7.87,1.98,1,2.83.29,22.19-18.5,37.86-44.19,44.22-72.57,6.43-28.71,3-59-9.65-85.54-.48-1-1.7-1.41-2.7-.92Z"/><path class="cls-5" d="m573.9,165.03c-11.36-36.81-35.7-68.21-68.54-88.43-6.56-4.04-13.47-7.63-20.56-10.69-1.02-.44-2.21.05-2.64,1.08-.42,1.01.05,2.17,1.06,2.6,6.91,2.98,13.64,6.48,20.04,10.42,64.85,39.92,91.11,122.19,61.63,192.08-.43,1.01.03,2.17,1.03,2.61h0c1.02.45,2.22-.02,2.65-1.05,14.48-34.32,16.39-72.81,5.33-108.62Z"/></svg>